<svg width="97" height="24" viewBox="0 0 97 24" fill="none" xmlns="http://www.w3.org/2000/svg">
    <path
        d="M24 8.44854C24 8.80234 23.8595 9.14164 23.6093 9.39181C23.3591 9.64198 23.0198 9.78252 22.666 9.78252H21.332V11.1165C21.332 11.4703 21.1915 11.8096 20.9413 12.0598C20.6912 12.3099 20.3519 12.4505 19.9981 12.4505C19.6443 12.4505 19.305 12.3099 19.0548 12.0598C18.8046 11.8096 18.6641 11.4703 18.6641 11.1165V9.78252H17.3301C16.9763 9.78252 16.637 9.64198 16.3868 9.39181C16.1367 9.14164 15.9961 8.80234 15.9961 8.44854C15.9961 8.09475 16.1367 7.75545 16.3868 7.50528C16.637 7.25511 16.9763 7.11456 17.3301 7.11456H18.6641V5.78058C18.6641 5.42679 18.8046 5.08749 19.0548 4.83732C19.305 4.58715 19.6443 4.4466 19.9981 4.4466C20.3519 4.4466 20.6912 4.58715 20.9413 4.83732C21.1915 5.08749 21.332 5.42679 21.332 5.78058V7.11456H22.666C23.0198 7.11456 23.3591 7.25511 23.6093 7.50528C23.8595 7.75545 24 8.09475 24 8.44854ZM12.8835 4.4466H13.3282V4.89126C13.3282 5.24506 13.4687 5.58436 13.7189 5.83453C13.969 6.0847 14.3083 6.22524 14.6621 6.22524C15.0159 6.22524 15.3552 6.0847 15.6054 5.83453C15.8556 5.58436 15.9961 5.24506 15.9961 4.89126V4.4466H16.4408C16.7946 4.4466 17.1339 4.30606 17.384 4.05589C17.6342 3.80572 17.7748 3.46641 17.7748 3.11262C17.7748 2.75883 17.6342 2.41952 17.384 2.16935C17.1339 1.91918 16.7946 1.77864 16.4408 1.77864H15.9961V1.33398C15.9961 0.980187 15.8556 0.640884 15.6054 0.390714C15.3552 0.140544 15.0159 0 14.6621 0C14.3083 0 13.969 0.140544 13.7189 0.390714C13.4687 0.640884 13.3282 0.980187 13.3282 1.33398V1.77864H12.8835C12.5297 1.77864 12.1904 1.91918 11.9402 2.16935C11.6901 2.41952 11.5495 2.75883 11.5495 3.11262C11.5495 3.46641 11.6901 3.80572 11.9402 4.05589C12.1904 4.30606 12.5297 4.4466 12.8835 4.4466ZM21.3109 14.4937C21.4654 14.6731 21.5694 14.8904 21.6122 15.1232C21.655 15.3561 21.635 15.5962 21.5544 15.8188C20.912 17.5719 19.8384 19.135 18.4326 20.3639C17.0268 21.5927 15.3342 22.4476 13.5108 22.8498C11.6875 23.2519 9.79229 23.1883 8.00002 22.6649C6.20776 22.1414 4.57621 21.175 3.25595 19.8547C1.93568 18.5345 0.969233 16.9029 0.445787 15.1107C-0.07766 13.3184 -0.14124 11.4232 0.260915 9.59984C0.66307 7.77652 1.518 6.08388 2.74682 4.6781C3.97563 3.27232 5.53874 2.1987 7.29189 1.55631C7.51417 1.4751 7.75406 1.45448 7.98693 1.49657C8.21981 1.53865 8.4373 1.64194 8.61709 1.79582C8.79688 1.9497 8.9325 2.14863 9.01004 2.37222C9.08757 2.59581 9.10423 2.836 9.05831 3.06815C8.94057 3.66871 8.88138 4.27927 8.88155 4.89126C8.8842 7.367 9.86886 9.74059 11.6195 11.4912C13.3701 13.2418 15.7437 14.2265 18.2194 14.2291C18.8303 14.229 19.4397 14.1698 20.0392 14.0524C20.2713 14.0066 20.5113 14.0233 20.7348 14.1009C20.9583 14.1784 21.1571 14.314 21.3109 14.4937ZM17.9971 16.8971C14.8909 16.8365 11.9288 15.5755 9.73196 13.3787C7.53513 11.1819 6.2742 8.21979 6.21359 5.11359C5.21384 5.82618 4.3814 6.74811 3.77424 7.81518C3.16707 8.88225 2.79976 10.0688 2.69788 11.2923C2.596 12.5158 2.762 13.7468 3.18432 14.8996C3.60664 16.0524 4.27513 17.0993 5.14326 17.9674C6.01139 18.8355 7.05829 19.504 8.21109 19.9264C9.36389 20.3487 10.5949 20.5147 11.8184 20.4128C13.0418 20.3109 14.2284 19.9436 15.2955 19.3364C16.3626 18.7293 17.2845 17.8968 17.9971 16.8971Z"
        fill="#FDFDFF" />
    <path
        d="M38.3057 14.7656C38.3057 14.4668 38.2588 14.2031 38.165 13.9746C38.0771 13.7402 37.9189 13.5293 37.6904 13.3418C37.4678 13.1543 37.1572 12.9756 36.7588 12.8057C36.3662 12.6357 35.8682 12.4629 35.2646 12.2871C34.6318 12.0996 34.0605 11.8916 33.5508 11.6631C33.041 11.4287 32.6045 11.1621 32.2412 10.8633C31.8779 10.5645 31.5996 10.2217 31.4062 9.83496C31.2129 9.44824 31.1162 9.00586 31.1162 8.50781C31.1162 8.00977 31.2188 7.5498 31.4238 7.12793C31.6289 6.70605 31.9219 6.33984 32.3027 6.0293C32.6895 5.71289 33.1494 5.4668 33.6826 5.29102C34.2158 5.11523 34.8105 5.02734 35.4668 5.02734C36.4277 5.02734 37.2422 5.21191 37.9102 5.58105C38.584 5.94434 39.0967 6.42188 39.4482 7.01367C39.7998 7.59961 39.9756 8.22656 39.9756 8.89453H38.2881C38.2881 8.41406 38.1855 7.98926 37.9805 7.62012C37.7754 7.24512 37.4648 6.95215 37.0488 6.74121C36.6328 6.52441 36.1055 6.41602 35.4668 6.41602C34.8633 6.41602 34.3652 6.50684 33.9727 6.68848C33.5801 6.87012 33.2871 7.11621 33.0938 7.42676C32.9062 7.7373 32.8125 8.0918 32.8125 8.49023C32.8125 8.75977 32.8682 9.00586 32.9795 9.22852C33.0967 9.44531 33.2754 9.64746 33.5156 9.83496C33.7617 10.0225 34.0723 10.1953 34.4473 10.3535C34.8281 10.5117 35.2822 10.6641 35.8096 10.8105C36.5361 11.0156 37.1631 11.2441 37.6904 11.4961C38.2178 11.748 38.6514 12.0322 38.9912 12.3486C39.3369 12.6592 39.5918 13.0137 39.7559 13.4121C39.9258 13.8047 40.0107 14.25 40.0107 14.748C40.0107 15.2695 39.9053 15.7412 39.6943 16.1631C39.4834 16.585 39.1816 16.9453 38.7891 17.2441C38.3965 17.543 37.9248 17.7744 37.374 17.9385C36.8291 18.0967 36.2197 18.1758 35.5459 18.1758C34.9541 18.1758 34.3711 18.0938 33.7969 17.9297C33.2285 17.7656 32.71 17.5195 32.2412 17.1914C31.7783 16.8633 31.4062 16.459 31.125 15.9785C30.8496 15.4922 30.7119 14.9297 30.7119 14.291H32.3994C32.3994 14.7305 32.4844 15.1084 32.6543 15.4248C32.8242 15.7354 33.0557 15.9932 33.3486 16.1982C33.6475 16.4033 33.9844 16.5557 34.3594 16.6553C34.7402 16.749 35.1357 16.7959 35.5459 16.7959C36.1377 16.7959 36.6387 16.7139 37.0488 16.5498C37.459 16.3857 37.7695 16.1514 37.9805 15.8467C38.1973 15.542 38.3057 15.1816 38.3057 14.7656ZM41.4961 13.3506V13.1484C41.4961 12.4629 41.5957 11.8271 41.7949 11.2412C41.9941 10.6494 42.2812 10.1367 42.6562 9.70312C43.0312 9.26367 43.4854 8.92383 44.0186 8.68359C44.5518 8.4375 45.1494 8.31445 45.8115 8.31445C46.4795 8.31445 47.0801 8.4375 47.6133 8.68359C48.1523 8.92383 48.6094 9.26367 48.9844 9.70312C49.3652 10.1367 49.6553 10.6494 49.8545 11.2412C50.0537 11.8271 50.1533 12.4629 50.1533 13.1484V13.3506C50.1533 14.0361 50.0537 14.6719 49.8545 15.2578C49.6553 15.8438 49.3652 16.3564 48.9844 16.7959C48.6094 17.2295 48.1553 17.5693 47.6221 17.8154C47.0947 18.0557 46.4971 18.1758 45.8291 18.1758C45.1611 18.1758 44.5605 18.0557 44.0273 17.8154C43.4941 17.5693 43.0371 17.2295 42.6562 16.7959C42.2812 16.3564 41.9941 15.8438 41.7949 15.2578C41.5957 14.6719 41.4961 14.0361 41.4961 13.3506ZM43.1221 13.1484V13.3506C43.1221 13.8252 43.1777 14.2734 43.2891 14.6953C43.4004 15.1113 43.5674 15.4805 43.79 15.8027C44.0186 16.125 44.3027 16.3799 44.6426 16.5674C44.9824 16.749 45.3779 16.8398 45.8291 16.8398C46.2744 16.8398 46.6641 16.749 46.998 16.5674C47.3379 16.3799 47.6191 16.125 47.8418 15.8027C48.0645 15.4805 48.2314 15.1113 48.3428 14.6953C48.46 14.2734 48.5186 13.8252 48.5186 13.3506V13.1484C48.5186 12.6797 48.46 12.2373 48.3428 11.8213C48.2314 11.3994 48.0615 11.0273 47.833 10.7051C47.6104 10.377 47.3291 10.1191 46.9893 9.93164C46.6553 9.74414 46.2627 9.65039 45.8115 9.65039C45.3662 9.65039 44.9736 9.74414 44.6338 9.93164C44.2998 10.1191 44.0186 10.377 43.79 10.7051C43.5674 11.0273 43.4004 11.3994 43.2891 11.8213C43.1777 12.2373 43.1221 12.6797 43.1221 13.1484ZM53.8184 10.5205V18H52.1924V8.49023H53.7305L53.8184 10.5205ZM53.4316 12.8848L52.7549 12.8584C52.7607 12.208 52.8574 11.6074 53.0449 11.0566C53.2324 10.5 53.4961 10.0166 53.8359 9.60645C54.1758 9.19629 54.5801 8.87988 55.0488 8.65723C55.5234 8.42871 56.0479 8.31445 56.6221 8.31445C57.0908 8.31445 57.5127 8.37891 57.8877 8.50781C58.2627 8.63086 58.582 8.83008 58.8457 9.10547C59.1152 9.38086 59.3203 9.73828 59.4609 10.1777C59.6016 10.6113 59.6719 11.1416 59.6719 11.7686V18H58.0371V11.751C58.0371 11.2529 57.9639 10.8545 57.8174 10.5557C57.6709 10.251 57.457 10.0312 57.1758 9.89648C56.8945 9.75586 56.5488 9.68555 56.1387 9.68555C55.7344 9.68555 55.3652 9.77051 55.0312 9.94043C54.7031 10.1104 54.4189 10.3447 54.1787 10.6436C53.9443 10.9424 53.7598 11.2852 53.625 11.6719C53.4961 12.0527 53.4316 12.457 53.4316 12.8848ZM67.96 15.8027V8.49023H69.5947V18H68.0391L67.96 15.8027ZM68.2676 13.7988L68.9443 13.7812C68.9443 14.4141 68.877 15 68.7422 15.5391C68.6133 16.0723 68.4023 16.5352 68.1094 16.9277C67.8164 17.3203 67.4326 17.6279 66.958 17.8506C66.4834 18.0674 65.9062 18.1758 65.2266 18.1758C64.7637 18.1758 64.3389 18.1084 63.9521 17.9736C63.5713 17.8389 63.2432 17.6309 62.9678 17.3496C62.6924 17.0684 62.4785 16.7021 62.3262 16.251C62.1797 15.7998 62.1064 15.2578 62.1064 14.625V8.49023H63.7324V14.6426C63.7324 15.0703 63.7793 15.4248 63.873 15.7061C63.9727 15.9814 64.1045 16.2012 64.2686 16.3652C64.4385 16.5234 64.626 16.6348 64.8311 16.6992C65.042 16.7637 65.2588 16.7959 65.4814 16.7959C66.1729 16.7959 66.7207 16.6641 67.125 16.4004C67.5293 16.1309 67.8193 15.7705 67.9951 15.3193C68.1768 14.8623 68.2676 14.3555 68.2676 13.7988ZM77.6104 15.4775C77.6104 15.2432 77.5576 15.0264 77.4521 14.8271C77.3525 14.6221 77.1445 14.4375 76.8281 14.2734C76.5176 14.1035 76.0488 13.957 75.4219 13.834C74.8945 13.7227 74.417 13.5908 73.9893 13.4385C73.5674 13.2861 73.207 13.1016 72.9082 12.8848C72.6152 12.668 72.3896 12.4131 72.2314 12.1201C72.0732 11.8271 71.9941 11.4844 71.9941 11.0918C71.9941 10.7168 72.0762 10.3623 72.2402 10.0283C72.4102 9.69434 72.6475 9.39844 72.9521 9.14062C73.2627 8.88281 73.6348 8.68066 74.0684 8.53418C74.502 8.3877 74.9854 8.31445 75.5186 8.31445C76.2803 8.31445 76.9307 8.44922 77.4697 8.71875C78.0088 8.98828 78.4219 9.34863 78.709 9.7998C78.9961 10.2451 79.1396 10.7402 79.1396 11.2852H77.5137C77.5137 11.0215 77.4346 10.7666 77.2764 10.5205C77.124 10.2686 76.8984 10.0605 76.5996 9.89648C76.3066 9.73242 75.9463 9.65039 75.5186 9.65039C75.0674 9.65039 74.7012 9.7207 74.4199 9.86133C74.1445 9.99609 73.9424 10.1689 73.8135 10.3799C73.6904 10.5908 73.6289 10.8135 73.6289 11.0479C73.6289 11.2236 73.6582 11.3818 73.7168 11.5225C73.7812 11.6572 73.8926 11.7832 74.0508 11.9004C74.209 12.0117 74.4316 12.1172 74.7188 12.2168C75.0059 12.3164 75.3721 12.416 75.8174 12.5156C76.5967 12.6914 77.2383 12.9023 77.7422 13.1484C78.2461 13.3945 78.6211 13.6963 78.8672 14.0537C79.1133 14.4111 79.2363 14.8447 79.2363 15.3545C79.2363 15.7705 79.1484 16.1514 78.9727 16.4971C78.8027 16.8428 78.5537 17.1416 78.2256 17.3936C77.9033 17.6396 77.5166 17.833 77.0654 17.9736C76.6201 18.1084 76.1191 18.1758 75.5625 18.1758C74.7246 18.1758 74.0156 18.0264 73.4355 17.7275C72.8555 17.4287 72.416 17.042 72.1172 16.5674C71.8184 16.0928 71.6689 15.5918 71.6689 15.0645H73.3037C73.3271 15.5098 73.4561 15.8643 73.6904 16.1279C73.9248 16.3857 74.2119 16.5703 74.5518 16.6816C74.8916 16.7871 75.2285 16.8398 75.5625 16.8398C76.0078 16.8398 76.3799 16.7812 76.6787 16.6641C76.9834 16.5469 77.2148 16.3857 77.373 16.1807C77.5312 15.9756 77.6104 15.7412 77.6104 15.4775ZM86.3555 6.33691L82.1191 18H80.3877L85.2656 5.20312H86.3818L86.3555 6.33691ZM89.9062 18L85.6611 6.33691L85.6348 5.20312H86.751L91.6465 18H89.9062ZM89.6865 13.2627V14.6514H82.4971V13.2627H89.6865ZM95.1797 5.20312V18H93.4834V5.20312H95.1797Z"
        fill="#FDFDFF" />
</svg>